<svg width="64" height="64" viewBox="0 0 64 64" fill="none" xmlns="http://www.w3.org/2000/svg">
<g clip-path="url(#clip0_40_73)">
<mask id="mask0_40_73" style="mask-type:luminance" maskUnits="userSpaceOnUse" x="6" y="0" width="53" height="65">
<path d="M6 0H58.1192V64.0036H6V0Z" fill="white"/>
</mask>
<g mask="url(#mask0_40_73)">
<path d="M49.5221 34.0059C49.4486 25.9089 56.1409 22.0185 56.4424 21.8273C52.6771 16.319 46.8231 15.5689 44.7345 15.4806C39.7558 14.9732 35.0123 18.415 32.4824 18.415C29.9526 18.415 26.0549 15.5542 21.9218 15.6351C16.4871 15.716 11.4788 18.79 8.6769 23.6585C3.03623 33.4396 7.23548 47.9494 12.7364 55.8993C15.4281 59.7823 18.6271 64.1581 22.8411 63.9963C26.9006 63.8345 28.4303 61.3708 33.3282 61.3708C38.2261 61.3708 39.6087 63.9963 43.8888 63.9154C48.2499 63.8271 51.015 59.9441 53.6846 56.0464C56.766 51.5383 58.0383 47.1699 58.1118 46.9419C58.0162 46.9051 49.6104 43.684 49.5221 34.0059" fill="white"/>
</g>
<path d="M41.4693 10.2223C43.705 7.51599 45.2126 3.75064 44.8007 0C41.5796 0.132376 37.6819 2.14743 35.3727 4.85377C33.3061 7.24389 31.4896 11.0754 31.9824 14.7525C35.5639 15.032 39.2336 12.9213 41.4693 10.2223Z" fill="white"/>
</g>
<defs>
<clipPath id="clip0_40_73">
<rect width="64" height="64" fill="white"/>
</clipPath>
</defs>
</svg>
