<svg width="256" height="256" viewBox="0 0 256 256" fill="none" xmlns="http://www.w3.org/2000/svg">
<path d="M159.304 41.2226C159.933 41.8022 168.813 73.8349 169.754 77.1793L200.404 185.096C202.216 184.249 208.108 182.768 210.379 182.147C216.5 180.444 222.636 178.789 228.783 177.18C230.841 185.144 233.197 193.015 235.187 201.009C228.269 202.601 218.481 205.423 211.568 207.418C202.433 209.476 192.352 213.049 183.115 215.093L159.841 132.973L146.659 86.8105C143.011 73.9481 139.425 60.8952 135.617 48.0888C142.805 46.1772 152.277 43.4841 159.304 41.2226Z" fill="#FF2E00"/>
<path d="M119.172 52.7547C119.252 52.8313 119.332 52.908 119.413 52.9849C123.742 67.4141 124.848 83.8818 122.111 98.5434C116.566 128.254 95.9554 152.163 72.1048 169.348C68.5479 171.904 64.9018 174.333 61.173 176.63C58.9413 177.987 55.9209 179.599 53.8458 181.04L53.652 181.176C57.281 189.127 60.8617 197.101 64.3935 205.097C56.9324 208.025 49.198 212.184 41.5857 215.133C41.0971 213.619 39.866 210.995 39.1896 209.447L26.8771 181.817C25.733 179.246 22.1519 170.784 20.8455 168.827C23.1614 168.005 26.5901 166.385 28.9374 165.387C52.2815 155.454 75.981 138.588 88.854 116.389C99.697 97.6905 100.918 80.2014 95.53 59.6349C100.854 58.3206 106.235 56.4825 111.554 55.0613C114.032 54.3987 116.787 53.6318 119.172 52.7547Z" fill="#FF2E00"/>
</svg>
