<svg width="1024" height="1024" viewBox="0 0 1024 1024" fill="none" xmlns="http://www.w3.org/2000/svg">
<path d="M605.772 252C607.656 253.736 634.257 349.695 637.075 359.713L728.892 682.994C734.319 680.456 751.97 676.018 758.773 674.158C777.109 669.057 795.491 664.098 813.905 659.278C820.069 683.137 827.127 706.714 833.089 730.663C812.366 735.432 783.045 743.885 762.335 749.86C734.971 756.025 704.77 766.729 677.1 772.854L607.38 526.852L567.892 388.565C556.963 350.034 546.221 310.932 534.813 272.569C556.346 266.842 584.721 258.775 605.772 252Z" fill="white"/>
<path d="M485.55 286.546C485.79 286.776 486.031 287.005 486.272 287.236C499.242 330.46 502.552 379.791 494.355 423.712C477.743 512.713 416.002 584.336 344.554 635.818C333.899 643.473 322.977 650.749 311.807 657.631C305.121 661.697 296.073 666.525 289.857 670.842L289.276 671.249C300.148 695.068 310.874 718.955 321.454 742.907C299.103 751.68 275.934 764.139 253.13 772.971C251.667 768.438 247.978 760.578 245.952 755.94L209.069 673.17C205.641 665.469 194.914 640.12 191 634.255C197.938 631.793 208.209 626.942 215.241 623.95C285.171 594.194 356.166 543.672 394.729 477.172C427.21 421.157 430.869 368.766 414.728 307.157C430.677 303.219 446.796 297.713 462.728 293.456C470.154 291.471 478.404 289.173 485.55 286.546Z" fill="white"/>
</svg>
